<svg width="390" height="390" xmlns="http://www.w3.org/2000/svg" xmlns:xlink="http://www.w3.org/1999/xlink" xml:space="preserve" overflow="hidden"><defs><clipPath id="clip0"><rect x="2037" y="867" width="390" height="390"/></clipPath></defs><g clip-path="url(#clip0)" transform="translate(-2037 -867)"><path d="M2037 932.001C2037 896.102 2066.1 867 2102 867L2362 867C2397.9 867 2427 896.102 2427 932.001L2427 1192C2427 1227.9 2397.9 1257 2362 1257L2102 1257C2066.1 1257 2037 1227.9 2037 1192Z" fill="#012F41" fill-rule="evenodd"/><path d="M2142 1017.5C2142 971.937 2178.71 935 2224 935 2269.29 935 2306 971.937 2306 1017.5 2306 1063.06 2269.29 1100 2224 1100 2178.71 1100 2142 1063.06 2142 1017.5Z" stroke="#AED05E" stroke-width="13.75" stroke-miterlimit="8" fill="#012F41" fill-rule="evenodd"/><rect x="2213" y="1008" width="191" height="212" fill="#012F41"/><rect x="2269" y="1042" width="130" height="164" stroke="#AED05E" stroke-width="13.75" stroke-miterlimit="8" fill="#012F41"/><rect x="2248" y="1088" width="141" height="132" stroke="#AED05E" stroke-width="13.75" stroke-miterlimit="8" fill="#012F41"/><rect x="2351" y="1010" width="62.0002" height="220" fill="#012F41"/><rect x="2233" y="1195" width="141" height="38.0001" fill="#012F41"/><rect x="2328" y="1077" width="66" height="143" fill="#012F41"/></g></svg>