<svg width="837" height="725" xmlns="http://www.w3.org/2000/svg" xmlns:xlink="http://www.w3.org/1999/xlink" overflow="hidden"><defs><clipPath id="clip0"><rect x="24" y="-266" width="837" height="725"/></clipPath></defs><g clip-path="url(#clip0)" transform="translate(-24 266)"><path d="M659.037-83.1046C628.645-83.1046 603.319-107.972 604.586-139.056 604.586-168.897 629.912-193.765 660.304-193.765 690.695-193.765 716.022-168.897 716.022-139.056 716.022-124.136 709.691-110.459 699.56-100.511 688.163-89.3214 674.234-83.1046 659.037-83.1046ZM604.586-255.934C576.727-245.988 555.199-224.85 541.27-199.981 523.542-166.41 521.009-127.866 534.938-93.0509L595.721 36.2609 636.243 118.323C640.043 127.027 648.906 132 659.037 132 669.167 132 678.032 127.027 681.832 118.323L722.354 36.2609 783.137-91.8087C789.468-106.728 792.001-122.893 792.001-139.056 792.001-226.094 700.826-291.992 604.586-255.934Z" fill="#D65B10" fill-rule="evenodd"/><path d="M421.1 392.313 253.9 323.028 253.9 40.6877 421.1 109.973 421.1 392.313ZM212.1 323.028 86.7002 374.992 86.7002 92.6521 212.1 40.6877 212.1 323.028ZM791.031 32.0271 791.031 32.0271 764.905 78.795 797.301 92.6521 797.301 374.992 671.901 323.028 671.901 207.839 630.1 207.839 630.1 323.028 462.901 392.313 462.901 109.973 537.095 78.795 510.97 32.0271 442 60.6076 233-26.0001 24.0001 60.6076 24.0001 459.001 233 372.393 442 459.001 651 372.393 860.001 459.001 860.001 60.6076 791.031 32.0271Z" fill="#D65B10" fill-rule="evenodd"/></g></svg>