<svg width="115" height="164" xmlns="http://www.w3.org/2000/svg" xmlns:xlink="http://www.w3.org/1999/xlink" overflow="hidden"><defs><clipPath id="clip0"><rect x="-98" y="267" width="115" height="164"/></clipPath></defs><g clip-path="url(#clip0)" transform="translate(98 -267)"><path d="M106.615 46.7188C104.578 46.7188 103.021 48.276 103.021 50.3125L103.021 67.0833C103.021 61.8125 98.7083 57.5 93.4375 57.5L39.0521 57.5C39.2917 56.7812 39.5312 55.9427 39.5312 55.1042 39.5312 51.151 36.2969 47.9167 32.3438 47.9167L19.1667 47.9167C15.2135 47.9167 11.9792 51.151 11.9792 55.1042L11.9792 32.3438C11.9792 30.3073 10.4219 28.75 8.38542 28.75 6.34896 28.75 4.79167 30.3073 4.79167 32.3438L4.79167 86.25 11.9792 86.25 11.9792 74.2708 103.021 74.2708 103.021 86.25 110.208 86.25 110.208 50.3125C110.208 48.276 108.651 46.7188 106.615 46.7188ZM19.1667 52.7083 32.3438 52.7083C33.6615 52.7083 34.7396 53.7865 34.7396 55.1042 34.7396 56.4219 33.6615 57.5 32.3438 57.5L19.1667 57.5C17.849 57.5 16.7708 56.4219 16.7708 55.1042 16.7708 53.7865 17.849 52.7083 19.1667 52.7083ZM11.9792 67.0833 11.9792 62.2917 93.4375 62.2917C96.0729 62.2917 98.2292 64.4479 98.2292 67.0833L11.9792 67.0833Z" fill="#D65B10" transform="matrix(1 0 0 1.42609 -98 267)"/></g></svg>