<svg width="116" height="76" xmlns="http://www.w3.org/2000/svg" xmlns:xlink="http://www.w3.org/1999/xlink" overflow="hidden"><defs><clipPath id="clip0"><rect x="173" y="1292" width="116" height="76"/></clipPath></defs><g clip-path="url(#clip0)" transform="translate(-173 -1292)"><path d="M278 1326.5C278 1333.96 272.18 1340 265 1340 257.82 1340 252 1333.96 252 1326.5 252 1319.04 257.82 1313 265 1313 272.18 1313 278 1319.04 278 1326.5Z" fill="#012E40" fill-rule="evenodd"/><path d="M201.933 1350 201.933 1350C203.814 1349.85 205.695 1349.41 207.577 1348.68 210.471 1347.5 213.365 1346.91 216.404 1346.77 219.443 1346.91 222.482 1347.5 225.231 1348.68 226.968 1349.41 228.849 1349.85 230.875 1350 232.756 1349.85 234.637 1349.41 236.518 1348.68 239.413 1347.5 242.307 1346.91 245.345 1346.77 248.385 1346.91 251.423 1347.5 254.173 1348.68L255.186 1348.97C255.186 1348.24 254.896 1347.65 254.607 1347.06L251.713 1341.62 251.713 1341.48 237.097 1312.96 261.553 1306.5C265.46 1305.47 267.776 1301.5 266.762 1297.53 265.749 1293.56 261.842 1291.21 257.935 1292.24L224.652 1301.06C222.482 1301.65 220.745 1303.12 219.877 1305.17 219.009 1307.23 219.009 1309.58 220.022 1311.49L228.849 1328.84 196.579 1348.24C196.434 1348.38 196.289 1348.53 196 1348.68L196.289 1348.82C198.171 1349.41 200.052 1349.85 201.933 1350Z" fill="#012E40" fill-rule="evenodd"/><path d="M283.2 1357.9C280.445 1356.73 277.545 1356.15 274.5 1356L274.5 1356C271.455 1356.15 268.555 1356.73 265.8 1357.9 263.915 1358.63 262.03 1359.07 260 1359.22L260 1359.22C257.97 1359.07 256.085 1358.63 254.2 1357.9 251.445 1356.73 248.545 1356.15 245.5 1356L245.5 1356C242.455 1356.15 239.555 1356.73 236.8 1357.9 234.915 1358.63 233.03 1359.07 231 1359.22 228.97 1359.07 227.085 1358.63 225.2 1357.9 222.445 1356.73 219.545 1356.15 216.5 1356L216.5 1356C213.455 1356.15 210.555 1356.73 207.8 1357.9 205.915 1358.63 204.03 1359.07 202 1359.22 199.97 1359.07 198.085 1358.63 196.2 1357.9 193.445 1356.73 190.545 1356.15 187.5 1356L187.5 1356C184.455 1356.15 181.555 1356.73 178.8 1357.9 176.915 1358.63 175.03 1359.07 173 1359.22L173 1368C176.045 1367.85 178.945 1367.27 181.7 1366.1 183.585 1365.37 185.47 1364.78 187.5 1364.78 189.53 1364.93 191.415 1365.37 193.3 1366.1 196.055 1367.27 198.955 1367.85 202 1368L202 1368C205.045 1367.85 207.945 1367.27 210.7 1366.1 212.585 1365.37 214.47 1364.78 216.5 1364.78 218.53 1364.93 220.415 1365.37 222.3 1366.1 225.055 1367.27 227.955 1367.85 231 1368 234.045 1367.85 236.945 1367.27 239.7 1366.1 241.585 1365.37 243.47 1364.78 245.5 1364.78 247.53 1364.93 249.415 1365.37 251.3 1366.1 254.055 1367.27 256.955 1367.85 260 1368L260 1368C263.045 1367.85 265.945 1367.27 268.7 1366.1 270.585 1365.37 272.47 1364.78 274.5 1364.78 276.53 1364.93 278.415 1365.37 280.3 1366.1 283.055 1367.27 285.955 1367.85 289 1368L289 1359.22C286.97 1359.07 285.085 1358.63 283.2 1357.9Z" fill="#012E40" fill-rule="evenodd"/></g></svg>