<svg width="169" height="169" xmlns="http://www.w3.org/2000/svg" xmlns:xlink="http://www.w3.org/1999/xlink" overflow="hidden"><defs><clipPath id="clip0"><rect x="0" y="287" width="169" height="169"/></clipPath></defs><g clip-path="url(#clip0)" transform="matrix(1 0 0 1 0 -287)"><path d="M84.5 415.51C66.8958 415.51 52.8125 401.427 52.8125 383.823 52.8125 366.219 66.8958 352.135 84.5 352.135 102.104 352.135 116.188 366.219 116.188 383.823 116.188 401.427 102.104 415.51 84.5 415.51ZM49.2917 359.177 28.1667 359.177 28.1667 345.094 49.2917 345.094 49.2917 359.177ZM147.875 331.01 112.667 331.01 102.104 313.406 66.8958 313.406 56.3333 331.01 21.125 331.01C17.2521 331.01 14.0833 334.179 14.0833 338.052L14.0833 422.552C14.0833 426.425 17.2521 429.594 21.125 429.594L147.875 429.594C151.748 429.594 154.917 426.425 154.917 422.552L154.917 338.052C154.917 334.179 151.748 331.01 147.875 331.01Z" fill="#012E40"/><path d="M84.5 366.219C74.6417 366.219 66.8958 373.965 66.8958 383.823 66.8958 393.681 74.6417 401.427 84.5 401.427 94.3583 401.427 102.104 393.681 102.104 383.823 102.104 373.965 94.3583 366.219 84.5 366.219ZM84.5 408.469C70.7688 408.469 59.8542 397.554 59.8542 383.823 59.8542 370.092 70.7688 359.177 84.5 359.177 98.2312 359.177 109.146 370.092 109.146 383.823 109.146 397.554 98.2312 408.469 84.5 408.469Z" fill="#012E40"/></g></svg>