<svg width="474" height="366" xmlns="http://www.w3.org/2000/svg" xmlns:xlink="http://www.w3.org/1999/xlink" overflow="hidden"><defs><clipPath id="clip0"><rect x="0" y="1480" width="474" height="366"/></clipPath></defs><g clip-path="url(#clip0)" transform="matrix(1 0 0 1 0 -1480)"><path d="M432.176 1582.61 432.176 1624.75 376.412 1624.75 376.412 1582.61 432.176 1582.61ZM41.8235 1772.25 97.5882 1772.25 97.5882 1814.39 41.8235 1814.39 41.8235 1772.25ZM181.235 1582.61 181.235 1624.75 125.471 1624.75 125.471 1582.61 181.235 1582.61ZM264.882 1582.61 264.882 1624.75 209.118 1624.75 209.118 1582.61 264.882 1582.61ZM348.529 1687.96 292.765 1687.96 292.765 1645.82 348.529 1645.82 348.529 1687.96ZM376.412 1687.96 376.412 1645.82 432.176 1645.82 432.176 1687.96 376.412 1687.96ZM376.412 1751.18 376.412 1709.04 432.176 1709.04 432.176 1751.18 376.412 1751.18ZM209.118 1772.25 264.882 1772.25 264.882 1814.39 209.118 1814.39 209.118 1772.25ZM181.235 1772.25 181.235 1814.39 125.471 1814.39 125.471 1772.25 181.235 1772.25ZM125.471 1709.04 181.235 1709.04 181.235 1751.18 125.471 1751.18 125.471 1709.04ZM97.5882 1709.04 97.5882 1751.18 41.8235 1751.18 41.8235 1709.04 97.5882 1709.04ZM97.5882 1645.82 97.5882 1687.96 41.8235 1687.96 41.8235 1645.82 97.5882 1645.82ZM181.235 1687.96 125.471 1687.96 125.471 1645.82 181.235 1645.82 181.235 1687.96ZM209.118 1687.96 209.118 1645.82 264.882 1645.82 264.882 1687.96 209.118 1687.96ZM264.882 1751.18 209.118 1751.18 209.118 1709.04 264.882 1709.04 264.882 1751.18ZM292.765 1751.18 292.765 1709.04 348.529 1709.04 348.529 1751.18 292.765 1751.18ZM348.529 1582.61 348.529 1624.75 292.765 1624.75 292.765 1582.61 348.529 1582.61ZM0 1551 0 1846 474 1846 474 1551 0 1551Z" fill="#012E40" fill-rule="evenodd"/><path d="M0 1480 474 1480 474 1523 0 1523Z" fill="#012E40" fill-rule="evenodd"/></g></svg>