<svg width="52" height="101" xmlns="http://www.w3.org/2000/svg" xmlns:xlink="http://www.w3.org/1999/xlink" overflow="hidden"><defs><clipPath id="clip0"><rect x="205" y="719" width="52" height="101"/></clipPath></defs><g clip-path="url(#clip0)" transform="translate(-205 -719)"><path d="M227.003 757C225.738 757.058 224.512 757.461 223.459 758.164 222.996 758.462 222.861 759.078 223.158 759.541 223.456 760.005 224.072 760.139 224.536 759.842 224.546 759.836 224.555 759.829 224.565 759.823 225.291 759.339 226.132 759.053 227.003 758.993 227.554 758.993 228 758.547 228 757.997 228 757.446 227.554 757 227.003 757Z" fill="#012E40" fill-rule="evenodd"/><path d="M238.833 759.555C239.138 759.095 239.014 758.475 238.555 758.168 237.499 757.463 236.269 757.059 235 757 234.448 757 234 757.448 234 758 234 758.553 234.448 759 235 759 235.874 759.058 236.718 759.346 237.446 759.833 237.906 760.139 238.526 760.014 238.833 759.555Z" fill="#012E40" fill-rule="evenodd"/><path d="M257 785.601C257 780.94 253.813 776.446 248.728 773.211 249.687 770.982 250.185 768.581 250.193 766.154 250.086 761.919 248.065 757.962 244.699 755.398 242.419 742.845 238.12 730.746 231.969 719.573 231.674 719.037 231 718.842 230.464 719.139 230.282 719.24 230.131 719.391 230.031 719.573 223.88 730.746 219.581 742.845 217.301 755.398 213.934 757.961 211.913 761.918 211.807 766.154 211.815 768.581 212.314 770.982 213.273 773.211 208.187 776.445 205 780.94 205 785.601 205 789.542 207.272 793.153 211.046 795.956L211.738 796.333 209.901 800.647C209.721 801.057 209.808 801.536 210.121 801.856 211.439 803.176 212.933 804.308 214.56 805.219L216.194 813.407 216.054 813.407C213.103 813.407 210.71 815.804 210.71 818.761L210.71 818.901C210.71 819.508 211.202 820 211.807 820L226.065 820C226.671 820 227.161 819.508 227.161 818.901L227.161 816.154C227.161 814.03 228.88 812.308 231 812.308 233.12 812.308 234.839 814.03 234.839 816.154L234.839 818.901C234.839 819.508 235.33 820 235.935 820L250.193 820C250.799 820 251.29 819.508 251.29 818.901L251.29 818.761C251.29 815.804 248.897 813.407 245.947 813.407L245.806 813.407 247.44 805.218C249.068 804.307 250.561 803.176 251.88 801.856 252.19 801.535 252.277 801.057 252.099 800.647L250.268 796.361 251.063 795.872C254.772 793.082 257 789.503 257 785.601ZM221.13 757.986C227.175 754.225 234.826 754.225 240.871 757.986L240.871 763.961C240.878 764.766 240.526 765.533 239.91 766.049 239.283 766.579 238.455 766.805 237.646 766.669 236.769 766.522 235.811 766.419 234.839 766.34 235.189 765.796 235.379 765.164 235.387 764.517 235.061 762.089 232.833 760.386 230.41 760.712 228.434 760.978 226.879 762.536 226.613 764.517 226.621 765.164 226.811 765.796 227.161 766.34 226.189 766.424 225.234 766.527 224.353 766.669 223.545 766.806 222.717 766.579 222.09 766.049 221.474 765.533 221.121 764.766 221.128 763.961ZM231 768.352C232.515 768.352 233.742 769.089 233.742 770 233.742 770.911 232.515 771.648 231 771.648 229.485 771.648 228.258 770.91 228.258 770 228.258 769.09 229.485 768.352 231 768.352ZM228.807 764.505C228.807 763.612 229.811 762.857 231 762.857 232.189 762.857 233.194 763.612 233.194 764.505 233.194 765.399 232.189 766.154 231 766.154 229.811 766.154 228.807 765.399 228.807 764.505ZM223.323 797.796C220.156 797.105 217.133 795.866 214.39 794.135 213.46 793.524 212.9 792.483 212.904 791.368L212.904 784.912 213.562 786.729C213.845 787.511 214.415 788.157 215.156 788.535 217.797 789.885 220.525 791.056 223.323 792.039ZM235.387 799.774 226.613 799.774 226.613 791.978 235.387 791.978ZM231 784.58C227.653 782.838 216.194 776.142 216.194 766.154 216.214 764.353 216.788 762.602 217.839 761.142L217.839 763.961C217.843 767.299 220.547 770.003 223.878 769.999 223.88 769.999 223.883 769.999 223.886 769.999 224.223 769.999 224.56 769.971 224.894 769.915 225.278 769.852 225.689 769.805 226.094 769.754 226.089 769.836 226.065 769.914 226.065 770 226.065 772.192 228.187 773.846 231 773.846 233.813 773.846 235.935 772.192 235.935 770 235.935 769.914 235.911 769.836 235.906 769.754 236.311 769.803 236.722 769.852 237.107 769.915 240.39 770.481 243.509 768.273 244.074 764.983 244.132 764.646 244.161 764.304 244.161 763.961L244.161 761.142C245.212 762.602 245.787 764.353 245.806 766.154 245.806 776.11 234.337 782.834 231 784.58ZM249.118 791.433C249.108 792.529 248.555 793.548 247.643 794.153 244.898 795.904 241.861 797.146 238.677 797.821L238.677 792.04C241.486 791.054 244.225 789.879 246.875 788.523 247.595 788.154 248.155 787.533 248.447 786.777L249.195 784.837Z" fill="#012E40" fill-rule="evenodd"/></g></svg>