<svg width="80" height="79" xmlns="http://www.w3.org/2000/svg" xmlns:xlink="http://www.w3.org/1999/xlink" overflow="hidden"><defs><clipPath id="clip0"><rect x="456" y="533" width="80" height="79"/></clipPath></defs><g clip-path="url(#clip0)" transform="translate(-456 -533)"><path d="M503.571 612 496 612C496.028 589.92 513.92 572.028 536 572L536 579.571C518.099 579.592 503.592 594.099 503.571 612Z" fill="#012E40" fill-rule="evenodd"/><path d="M483.603 612 476 612C476.063 579.422 502.897 553.034 536 553L536 560.483C507.096 560.517 483.666 583.554 483.603 612Z" fill="#012E40" fill-rule="evenodd"/><path d="M463.619 612 456 612C456.049 568.39 491.838 533.048 536 533L536 540.524C496.043 540.566 463.661 572.542 463.619 612Z" fill="#012E40" fill-rule="evenodd"/><path d="M536 602C536 607.523 531.523 612 526 612 520.477 612 516 607.523 516 602 516 596.477 520.477 592 526 592 531.523 592 536 596.477 536 602Z" fill="#012E40" fill-rule="evenodd"/></g></svg>