<svg width="150" height="95" xmlns="http://www.w3.org/2000/svg" xmlns:xlink="http://www.w3.org/1999/xlink" overflow="hidden"><defs><clipPath id="clip0"><rect x="156" y="1487" width="150" height="95"/></clipPath></defs><g clip-path="url(#clip0)" transform="translate(-156 -1487)"><path d="M305.483 1576.59 271.023 1522.52C270.334 1521.51 269.301 1521 268.095 1521 266.889 1521 265.855 1521.68 265.165 1522.52L255 1538.4 276.709 1572.88C278.605 1575.58 278.949 1578.96 277.743 1582L302.21 1582C303.588 1582 304.794 1581.32 305.483 1580.14 306.172 1578.96 306.172 1577.61 305.483 1576.59L305.483 1576.59Z" fill="#012E40" fill-rule="evenodd"/><path d="M222.699 1526.19 214 1533.99 205.301 1526.36 188.927 1536.2 214 1495.48 239.073 1536.2 222.699 1526.19ZM271.31 1576.57 216.9 1488.53C216.218 1487.68 215.194 1487 214 1487 212.806 1487 211.783 1487.51 211.101 1488.53L156.691 1576.57C155.838 1577.59 155.838 1579.12 156.349 1580.3 157.032 1581.32 158.226 1582 159.59 1582L268.41 1582C269.775 1582 270.969 1581.32 271.651 1580.13 272.163 1578.95 272.163 1577.59 271.31 1576.57Z" fill="#012E40" fill-rule="evenodd"/></g></svg>