<svg width="149" height="69" xmlns="http://www.w3.org/2000/svg" xmlns:xlink="http://www.w3.org/1999/xlink" overflow="hidden"><defs><clipPath id="clip0"><rect x="687" y="957" width="149" height="69"/></clipPath></defs><g clip-path="url(#clip0)" transform="translate(-687 -957)"><path d="M829.989 975 827.67 975C825.316 975.01 823.283 976.645 822.774 978.938L819.273 995 703.727 995 700.219 978.938C699.711 976.648 697.681 975.013 695.33 975L693.011 975C690.243 975 688 977.238 688 980L688 1008.33C688.005 1012.93 691.742 1016.66 696.352 1016.67L704.704 1016.67 704.704 1025 708.045 1025 708.045 1016.67 814.955 1016.67 814.955 1025 818.296 1025 818.296 1016.67 826.648 1016.67C831.259 1016.66 834.995 1012.93 835 1008.33L835 980C835 977.238 832.757 975 829.989 975ZM831.659 1008.33C831.659 1011.09 829.416 1013.33 826.648 1013.33L696.352 1013.33C693.584 1013.33 691.341 1011.09 691.341 1008.33L691.341 980C691.341 979.079 692.089 978.333 693.011 978.333L695.33 978.333C696.116 978.333 696.795 978.88 696.962 979.646L701.029 998.333 821.97 998.333 826.043 979.645C826.21 978.881 826.886 978.335 827.67 978.333L829.989 978.333C830.911 978.333 831.659 979.079 831.659 980Z" stroke="#012E40" stroke-width="1.64711" stroke-miterlimit="8" fill="#012E40" fill-rule="evenodd"/><path d="M698.35 966.125C698.35 963.433 700.6 961.25 703.375 961.25L820.625 961.25C823.4 961.25 825.65 963.433 825.65 966.125L825.65 971 829 971 829 966.125C828.995 961.64 825.248 958.005 820.625 958L703.375 958C698.752 958.005 695.005 961.64 695 966.125L695 971 698.35 971Z" stroke="#012E40" stroke-width="1.64711" stroke-miterlimit="8" fill="#012E40" fill-rule="evenodd"/></g></svg>