<svg width="116" height="85" xmlns="http://www.w3.org/2000/svg" xmlns:xlink="http://www.w3.org/1999/xlink" overflow="hidden"><defs><clipPath id="clip0"><rect x="173" y="539" width="116" height="85"/></clipPath></defs><g clip-path="url(#clip0)" transform="translate(-173 -539)"><path d="M180.565 604 180.565 546.5 281.435 546.5 281.435 604 180.565 604ZM241.087 619 220.913 619 220.913 611.5 241.087 611.5 241.087 619ZM289 611.5 289 539 173 539 173 611.5 213.348 611.5 213.348 619 190.652 619C189.265 619 188.13 620.125 188.13 621.5L188.13 624 273.87 624 273.87 621.5C273.87 620.125 272.735 619 271.348 619L248.652 619 248.652 611.5 289 611.5Z" fill="#012E40" fill-rule="evenodd"/></g></svg>