<svg width="132" height="72" xmlns="http://www.w3.org/2000/svg" xmlns:xlink="http://www.w3.org/1999/xlink" overflow="hidden"><defs><clipPath id="clip0"><rect x="431" y="947" width="132" height="72"/></clipPath></defs><g clip-path="url(#clip0)" transform="translate(-431 -947)"><path d="M558.5 969.5C555.95 969.5 554 971.45 554 974L554 995C554 988.4 548.6 983 542 983L473.9 983C474.2 982.1 474.5 981.05 474.5 980 474.5 975.05 470.45 971 465.5 971L449 971C444.05 971 440 975.05 440 980L440 951.5C440 948.95 438.05 947 435.5 947 432.95 947 431 948.95 431 951.5L431 1019 440 1019 440 1004 554 1004 554 1019 563 1019 563 974C563 971.45 561.05 969.5 558.5 969.5ZM449 977 465.5 977C467.15 977 468.5 978.35 468.5 980 468.5 981.65 467.15 983 465.5 983L449 983C447.35 983 446 981.65 446 980 446 978.35 447.35 977 449 977ZM440 995 440 989 542 989C545.3 989 548 991.7 548 995L440 995Z" fill="#012E40" fill-rule="evenodd"/></g></svg>