<svg width="123" height="77" xmlns="http://www.w3.org/2000/svg" xmlns:xlink="http://www.w3.org/1999/xlink" overflow="hidden"><defs><clipPath id="clip0"><rect x="169" y="951" width="123" height="77"/></clipPath></defs><g clip-path="url(#clip0)" transform="translate(-169 -951)"><path d="M209 964.5C209 971.956 202.956 978 195.5 978 188.044 978 182 971.956 182 964.5 182 957.044 188.044 951 195.5 951 202.956 951 209 957.044 209 964.5Z" fill="#012E40" fill-rule="evenodd"/><path d="M279 964.5C279 971.956 273.18 978 266 978 258.82 978 253 971.956 253 964.5 253 957.044 258.82 951 266 951 273.18 951 279 957.044 279 964.5Z" fill="#012E40" fill-rule="evenodd"/><path d="M257 1028 257 1015C257 1012.98 256.117 1010.96 254.35 1009.8 250.817 1006.91 246.106 1004.89 241.395 1003.73 238.156 1002.87 234.328 1002 230.5 1002 226.967 1002 223.139 1002.58 219.606 1003.73 214.894 1004.89 210.478 1007.2 206.65 1009.8 204.883 1011.24 204 1012.98 204 1015L204 1028 257 1028Z" fill="#012E40" fill-rule="evenodd"/><path d="M244 985C244 992.18 238.18 998 231 998 223.82 998 218 992.18 218 985 218 977.82 223.82 972 231 972 238.18 972 244 977.82 244 985Z" fill="#012E40" fill-rule="evenodd"/><path d="M289.405 989.1C285.945 986.1 281.331 984 276.718 982.8 273.546 981.9 269.797 981 266.049 981 262.589 981 258.841 981.6 255.38 982.8 253.65 983.4 251.92 984 250.19 984.9L250.19 985.2C250.19 990.3 248.172 995.1 245 998.4 250.479 1000.2 254.804 1002.6 258.264 1005.3 259.129 1006.2 259.994 1006.8 260.571 1008L292 1008 292 994.5C292 992.4 291.135 990.3 289.405 989.1Z" fill="#012E40" fill-rule="evenodd"/><path d="M203.454 1005.3 203.454 1005.3C207.577 1002.3 212.288 999.9 217 998.4 213.761 994.8 211.699 990.3 211.699 985.2 211.699 984.9 211.699 984.9 211.699 984.6 209.932 984 208.166 983.1 206.399 982.8 203.159 981.9 199.331 981 195.503 981 191.969 981 188.141 981.6 184.607 982.8 179.896 984.3 175.479 986.4 171.65 989.1 169.884 990.3 169 992.4 169 994.5L169 1008 200.804 1008C201.687 1006.8 202.276 1006.2 203.454 1005.3Z" fill="#012E40" fill-rule="evenodd"/></g></svg>